# xmcd CD database file
#
# Track frame offsets:
#	150
#	20027
#	40127
#	61995
#	76985
#	101537
#	119042
#	128205
#	141567
#	153077
#	169577
#	185295
#	195097
#	217105
#
# Disc length: 2987 seconds
#
# Revision: 7
# Processed by: cddbd v1.5.2PL0 Copyright (c) Steve Scherf et al.
# Submitted via: CDex 1.70beta3
#
DISCID=c00ba90e
DTITLE=光田康典 - KiRite
DYEAR=2005
DGENRE=Easy Listening
TTITLE0=キリテは燃えているか？
TTITLE1=ヴォルフィノーの市
TTITLE2=風の約束～花片の行方
TTITLE3=瑠璃の森
TTITLE4=蒼穹
TTITLE5=嘲う白刃
TTITLE6=月の調べに
TTITLE7=邂逅～闇の帷
TTITLE8=夜想
TTITLE9=逝く秋
TTITLE10=雪の咆哮
TTITLE11=祈りの樹
TTITLE12=希望の名は
TTITLE13=永遠の円環
EXTD=YEAR: 2005
EXTT0=
EXTT1=
EXTT2=
EXTT3=
EXTT4=
EXTT5=
EXTT6=
EXTT7=
EXTT8=
EXTT9=
EXTT10=
EXTT11=
EXTT12=
EXTT13=
PLAYORDER=
